{
    "asset": {
        "generator": "Khronos glTF Blender I/O v3.6.27",
        "version": "2.0"
    },
    "scene": 0,
    "scenes": [
        {
            "name": "Scene",
            "nodes": [
                0
            ]
        }
    ],
    "nodes": [
        {
            "mesh": 0,
            "name": "vcyqebjfa_LOD0_TIER2_000",
            "rotation": [
                0.7071068286895752,
                0,
                0,
                0.7071068286895752
            ],
            "scale": [
                0.009999999776482582,
                0.009999999776482582,
                0.009999999776482582
            ]
        }
    ],
    "materials": [
        {
            "doubleSided": true,
            "name": "MI_vcyqebjfa",
            "normalTexture": {
                "index": 0
            },
            "occlusionTexture": {
                "index": 1
            },
            "pbrMetallicRoughness": {
                "baseColorTexture": {
                    "index": 2
                },
                "metallicRoughnessTexture": {
                    "index": 1
                }
            }
        }
    ],
    "meshes": [
        {
            "name": "S_vcyqebjfa_tier_2",
            "primitives": [
                {
                    "attributes": {
                        "POSITION": 0,
                        "NORMAL": 1,
                        "TEXCOORD_0": 2,
                        "TANGENT": 3
                    },
                    "indices": 4,
                    "material": 0
                }
            ]
        }
    ],
    "textures": [
        {
            "sampler": 0,
            "source": 0
        },
        {
            "sampler": 0,
            "source": 1
        },
        {
            "sampler": 0,
            "source": 2
        }
    ],
    "images": [
        {
            "mimeType": "image/png",
            "name": "T_vcyqebjfa_2K_N",
            "uri": "Textures/T_vcyqebjfa_2K_N.png"
        },
        {
            "mimeType": "image/png",
            "name": "T_vcyqebjfa_2K_ORM",
            "uri": "Textures/T_vcyqebjfa_2K_ORM.png",
            "extras": {
                "compression": "mask"
            }
        },
        {
            "mimeType": "image/png",
            "name": "T_vcyqebjfa_2K_B",
            "uri": "Textures/T_vcyqebjfa_2K_B.png"
        }
    ],
    "accessors": [
        {
            "bufferView": 0,
            "componentType": 5126,
            "count": 2965,
            "max": [
                57.7349739074707,
                44.849945068359375,
                2.4411354064941406
            ],
            "min": [
                -58.55622863769531,
                -47.125423431396484,
                -83.58169555664062
            ],
            "type": "VEC3"
        },
        {
            "bufferView": 1,
            "componentType": 5126,
            "count": 2965,
            "type": "VEC3"
        },
        {
            "bufferView": 2,
            "componentType": 5126,
            "count": 2965,
            "type": "VEC2"
        },
        {
            "bufferView": 3,
            "componentType": 5126,
            "count": 2965,
            "type": "VEC4"
        },
        {
            "bufferView": 4,
            "componentType": 5123,
            "count": 12090,
            "type": "SCALAR"
        }
    ],
    "bufferViews": [
        {
            "buffer": 0,
            "byteLength": 35580,
            "byteOffset": 0,
            "target": 34962
        },
        {
            "buffer": 0,
            "byteLength": 35580,
            "byteOffset": 35580,
            "target": 34962
        },
        {
            "buffer": 0,
            "byteLength": 23720,
            "byteOffset": 71160,
            "target": 34962
        },
        {
            "buffer": 0,
            "byteLength": 47440,
            "byteOffset": 94880,
            "target": 34962
        },
        {
            "buffer": 0,
            "byteLength": 24180,
            "byteOffset": 142320,
            "target": 34963
        }
    ],
    "samplers": [
        {
            "magFilter": 9729,
            "minFilter": 9987
        }
    ],
    "buffers": [
        {
            "byteLength": 166500,
            "uri": "vcyqebjfa_tier_2.bin"
        }
    ]
}